<svg width="78.4" height="78.4" xmlns="http://www.w3.org/2000/svg">
  <defs>
    <linearGradient id="packageGradient" x1="0%" y1="0%" x2="100%" y2="100%">
      <stop offset="0%" style="stop-color:#D2691E;stop-opacity:1" />
      <stop offset="100%" style="stop-color:#8B4513;stop-opacity:1" />
    </linearGradient>
    <filter id="packageShadow" x="-20%" y="-20%" width="140%" height="140%">
      <feDropShadow dx="2" dy="2" stdDeviation="2" flood-color="#000" flood-opacity="0.3"/>
    </filter>
  </defs>
  
  <!-- Package Box -->
  <rect x="9" y="19" width="60" height="40" fill="url(#packageGradient)" rx="6" filter="url(#packageShadow)"/>
  
  <!-- Box Top -->
  <path d="M9 19 L39 12 L69 19 L69 25 L39 18 L9 25 Z" fill="#F4A460"/>
  
  <!-- Box Side -->
  <path d="M69 19 L69 59 L69 59 L39 52 L39 12 Z" fill="#CD853F"/>
  
  <!-- UPS Label -->
  <rect x="24" y="35" width="30" height="12" fill="#FFC400" rx="3"/>
  <text x="39" y="43" text-anchor="middle" fill="#8B4513" font-size="8" font-weight="bold">UPS</text>
  
  <!-- Ruler -->
  <rect x="5" y="65" width="68" height="6" fill="#FFE082" stroke="#333" stroke-width="1" rx="3"/>
  
  <!-- Ruler Marks -->
  <line x1="12" y1="63" x2="12" y2="73" stroke="#333" stroke-width="2"/>
  <line x1="25" y1="64" x2="25" y2="72" stroke="#333" stroke-width="1"/>
  <line x1="39" y1="63" x2="39" y2="73" stroke="#333" stroke-width="2"/>
  <line x1="53" y1="64" x2="53" y2="72" stroke="#333" stroke-width="1"/>
  <line x1="66" y1="63" x2="66" y2="73" stroke="#333" stroke-width="2"/>
  
  <!-- Measurement Text -->
  <text x="39" y="77" text-anchor="middle" fill="#333" font-size="6" font-weight="bold">24"</text>
</svg>